<?xml version="1.0" standalone="no"?>
<!DOCTYPE svg PUBLIC "-//W3C//DTD SVG 20010904//EN"
 "http://www.w3.org/TR/2001/REC-SVG-20010904/DTD/svg10.dtd">
<svg version="1.0" xmlns="http://www.w3.org/2000/svg"
 width="344.000000pt" height="344.000000pt" viewBox="0 0 344.000000 344.000000"
 preserveAspectRatio="xMidYMid meet">

<g transform="translate(0.000000,344.000000) scale(0.100000,-0.100000)"
fill="#000000" stroke="none">
<path d="M1487 3284 c-346 -53 -632 -199 -883 -449 -228 -228 -365 -481 -435
-805 -20 -90 -23 -134 -23 -310 0 -226 14 -322 75 -504 153 -459 536 -842 995
-995 182 -61 278 -75 504 -75 225 0 322 14 500 74 464 154 845 535 999 996 61
182 75 278 75 504 0 226 -14 322 -75 504 -187 560 -686 976 -1274 1061 -123
18 -340 18 -458 -1z m474 -140 c443 -74 835 -361 1042 -762 59 -113 120 -298
141 -421 21 -124 21 -358 0 -482 -34 -202 -129 -430 -251 -602 -74 -104 -226
-256 -330 -330 -175 -124 -402 -218 -611 -252 -141 -24 -409 -17 -538 13 -440
103 -790 376 -989 771 -50 100 -110 286 -129 400 -21 124 -21 358 0 482 85
511 452 948 938 1118 83 29 218 64 291 74 81 11 348 6 436 -9z"/>
<path d="M1657 2544 c-4 -4 -7 -175 -7 -381 l0 -373 -377 -2 -378 -3 0 -65 0
-65 377 -3 378 -2 2 -378 3 -377 65 0 65 0 3 377 2 378 378 2 377 3 0 65 0 65
-377 3 -378 2 -2 378 -3 377 -60 3 c-34 2 -64 0 -68 -4z"/>
</g>
</svg>
