<?xml version="1.0" standalone="no"?>
<!DOCTYPE svg PUBLIC "-//W3C//DTD SVG 20010904//EN"
 "http://www.w3.org/TR/2001/REC-SVG-20010904/DTD/svg10.dtd">
<svg version="1.0" xmlns="http://www.w3.org/2000/svg"
 width="344.000000pt" height="344.000000pt" viewBox="0 0 344.000000 344.000000"
 preserveAspectRatio="xMidYMid meet">

<g transform="translate(0.000000,344.000000) scale(0.100000,-0.100000)"
fill="#000000" stroke="none">
<path d="M1617 3276 c-20 -7 -52 -25 -70 -39 -49 -38 -1440 -1308 -1460 -1333
-45 -58 -61 -161 -35 -235 49 -143 203 -210 351 -153 15 6 17 -9 17 -156 0
-165 7 -200 38 -200 39 0 42 17 42 226 l0 201 317 289 c561 510 667 607 736
672 38 35 83 72 100 83 40 24 93 24 132 1 17 -11 283 -250 593 -532 l562 -513
0 -601 c0 -563 -2 -604 -19 -642 -22 -48 -82 -101 -131 -114 -22 -6 -429 -10
-1070 -10 -641 0 -1048 4 -1070 10 -49 13 -109 66 -131 114 -16 36 -19 70 -19
297 0 264 -2 279 -42 279 -36 0 -40 -33 -36 -298 5 -279 6 -285 66 -368 20
-28 51 -52 93 -73 l62 -31 1078 0 1077 0 63 33 c43 22 73 46 96 78 61 86 63
103 63 712 0 519 1 549 17 542 77 -29 164 -25 233 10 41 21 105 98 118 143 24
79 12 163 -32 228 -30 44 -1442 1330 -1495 1362 -36 21 -59 26 -125 29 -52 2
-94 -2 -119 -11z m200 -79 c29 -16 1417 -1274 1466 -1330 77 -88 48 -226 -58
-277 -48 -23 -103 -26 -148 -6 -18 8 -303 261 -634 564 -418 381 -614 554
-643 566 -53 21 -115 20 -165 -3 -24 -11 -277 -234 -640 -565 -330 -302 -616
-555 -635 -563 -48 -21 -120 -12 -168 20 -80 53 -102 171 -46 247 21 28 1218
1127 1442 1323 52 47 163 58 229 24z"/>
<path d="M1268 1686 c-170 -61 -264 -217 -236 -392 17 -109 41 -140 327 -422
146 -145 280 -270 298 -278 41 -18 85 -18 126 0 18 8 152 133 299 277 288 285
312 316 326 427 20 156 -47 291 -180 362 -54 29 -75 35 -148 38 -120 6 -179
-18 -275 -109 -40 -38 -78 -69 -85 -69 -7 0 -45 31 -85 69 -89 85 -151 111
-258 111 -40 -1 -88 -7 -109 -14z m223 -84 c24 -10 79 -51 122 -91 59 -55 84
-71 107 -71 23 0 48 16 107 71 99 91 146 113 238 113 56 0 80 -5 121 -26 140
-73 193 -241 119 -377 -18 -32 -116 -137 -284 -305 l-258 -256 -43 0 -44 0
-257 256 c-165 165 -267 274 -284 305 -125 230 117 489 356 381z"/>
<path d="M436 1094 c-33 -32 -12 -124 28 -124 24 0 36 25 36 72 0 37 -4 50
-19 58 -25 13 -27 13 -45 -6z"/>
</g>
</svg>
