<svg version="1.1" id="Layer_1" xmlns="http://www.w3.org/2000/svg" xmlns:xlink="http://www.w3.org/1999/xlink" x="0px" y="0px"
	 width="100%" viewBox="0 0 512 512" enable-background="new 0 0 512 512" xml:space="preserve">
<path fill="#FFFFFF" opacity="1.000000" stroke="none" 
	d="
M366.000000,0.999998 
	C414.976196,1.000000 463.952393,1.000000 512.964294,1.000000 
	C512.964294,171.559998 512.964294,342.119995 512.964294,513.000000 
	C432.646057,513.000000 352.291687,513.000000 271.471954,512.778076 
	C271.006592,512.556091 271.041962,512.113586 271.447113,512.069580 
	C280.233917,509.628357 288.615540,507.231079 297.396118,504.897766 
	C309.208191,501.681488 320.621338,498.401276 332.443756,495.074738 
	C349.453369,493.002167 362.922913,485.485596 373.351440,471.959412 
	C390.116364,455.245026 406.579254,438.677856 423.343994,421.962036 
	C438.608521,406.865082 453.612549,391.957825 468.496735,376.931824 
	C471.261597,374.140625 473.856873,371.074829 475.993958,367.787018 
	C484.707367,354.381531 488.752625,339.977234 486.124817,323.761047 
	C483.932007,310.229126 478.276062,298.510468 468.532715,289.288757 
	C455.643433,277.089569 440.006317,271.331879 421.567902,273.102722 
	C414.198456,274.794128 406.889130,275.691803 400.398956,278.489624 
	C388.331024,283.691986 379.580475,293.392609 370.598083,303.091736 
	C357.853485,315.786224 345.406525,328.337006 332.657837,341.037170 
	C321.221710,352.422089 310.087311,363.657684 298.651001,375.041016 
	C290.401611,383.121063 282.309723,390.916718 274.593811,399.068237 
	C272.251068,401.543243 270.946655,405.001007 268.990234,408.344727 
	C261.201874,433.592834 253.437698,458.460236 246.113693,483.456604 
	C244.743011,488.134705 244.305084,493.432159 244.904861,498.261444 
	C245.836060,505.759277 251.957916,509.551666 258.000000,513.000000 
	C232.645767,513.000000 207.291550,513.000000 181.602570,512.675537 
	C181.995407,511.971497 182.719635,511.585297 183.451111,511.213409 
	C197.003204,504.323181 199.286240,487.754303 188.090652,477.587036 
	C182.545517,472.551147 175.851639,472.525452 168.533737,473.100708 
	C161.711578,473.078430 155.353622,473.122467 148.531616,473.100464 
	C141.377029,473.078186 134.686478,473.121918 127.531975,473.099426 
	C120.042603,472.745026 113.017189,472.456909 105.559799,472.103821 
	C103.019775,471.817902 100.849365,471.845825 98.813728,471.335815 
	C84.880951,467.845032 75.791679,458.807434 70.060951,445.537170 
	C69.339661,440.944427 68.084740,436.764984 68.080963,432.584412 
	C67.975212,315.497772 67.916512,198.410797 68.211533,81.324776 
	C68.227684,74.914864 71.364738,68.512825 73.356728,61.938774 
	C78.348198,52.224697 86.656273,47.028271 96.461189,43.075153 
	C98.778351,42.686935 100.665291,42.135315 102.574265,42.043964 
	C112.378143,41.574841 122.187675,41.224064 132.459045,40.901512 
	C138.614212,40.924946 144.305557,40.878826 150.461044,40.901775 
	C157.615967,40.924519 164.306763,40.878193 171.461777,40.900337 
	C178.949097,40.923286 185.972214,40.877766 193.459229,40.900890 
	C199.614685,40.924706 205.306229,40.879879 211.462067,40.902863 
	C218.950409,40.925491 225.974442,40.880306 233.462891,40.902252 
	C242.617096,40.924042 251.306900,40.878693 260.461121,40.901073 
	C271.615784,40.923740 282.306030,40.878674 293.461029,40.900688 
	C304.616302,40.922989 315.306854,40.878204 326.462158,40.899860 
	C329.735382,40.977436 332.546539,40.912479 335.351593,41.015232 
	C341.570282,41.243031 347.785889,41.555000 354.441650,41.897655 
	C359.045074,42.700981 363.527588,42.710575 367.296783,44.355076 
	C372.449127,46.603054 377.058838,50.094688 381.952728,53.402752 
	C391.125916,63.982475 393.217804,76.193169 393.108612,89.481369 
	C392.796509,127.468956 393.233124,165.463120 392.853302,203.449463 
	C392.742188,214.561249 403.217407,224.206375 412.757751,224.343704 
	C425.546478,224.527771 434.254608,213.158478 434.162903,203.325775 
	C433.775970,161.840134 434.042450,120.348740 433.970367,78.859627 
	C433.950958,67.687042 431.141266,57.010632 426.410217,47.000629 
	C417.325592,27.779198 403.015533,13.877630 382.618042,6.088209 
	C376.827667,4.339767 371.413849,2.669882 366.000000,0.999998 
M147.924332,160.972473 
	C153.615585,160.926590 159.306854,160.880692 165.926666,160.971176 
	C173.616837,160.925339 181.306992,160.879486 189.925812,160.970413 
	C198.616318,160.924500 207.306808,160.878571 216.926025,160.968857 
	C225.949448,160.923553 234.972885,160.878235 244.925156,160.969055 
	C254.282639,160.923615 263.640106,160.878174 273.926483,160.967148 
	C286.615967,160.922363 299.305420,160.877563 312.924530,160.968079 
	C319.909790,160.978729 326.903442,160.780045 333.877838,161.061005 
	C340.390045,161.323334 345.505707,158.691299 349.449005,153.947617 
	C354.600433,147.750595 355.523804,140.537720 352.504303,133.121429 
	C349.695831,126.223358 344.377258,121.658173 336.922577,121.144150 
	C328.653168,120.573967 320.307404,121.111824 311.066132,121.039444 
	C298.376617,121.082039 285.687134,121.124641 272.068420,121.037292 
	C262.711060,121.080566 253.353683,121.123833 243.067276,121.037613 
	C234.043961,121.080849 225.020645,121.124084 215.068329,121.036369 
	C206.377945,121.079697 197.687546,121.123024 188.068268,121.035217 
	C180.378220,121.078545 172.688187,121.121872 164.070572,121.033020 
	C158.379456,121.077110 152.688354,121.121193 146.069794,121.033440 
	C140.378448,121.077713 134.687103,121.121979 128.121033,121.034943 
	C116.485481,118.971741 106.029633,131.006454 106.874916,142.446686 
	C107.529449,151.305298 116.355385,163.299423 129.923309,160.972488 
	C135.614609,160.926559 141.305923,160.880646 147.924332,160.972473 
M128.121994,281.034882 
	C116.483192,278.971893 106.029526,291.008240 106.874931,302.446930 
	C107.529549,311.304321 116.353668,323.299408 129.924820,320.972473 
	C135.948486,320.926361 141.972168,320.880249 148.922760,320.971985 
	C154.281204,320.926270 159.639664,320.880524 165.926208,320.971100 
	C172.283386,320.925873 178.640549,320.880615 185.926361,320.971863 
	C194.283508,320.926270 202.640640,320.880646 211.926529,320.970703 
	C221.616119,320.925385 231.305725,320.880066 241.923615,320.970642 
	C245.569565,320.980988 249.238266,320.735474 252.856567,321.056946 
	C259.620178,321.657928 264.766571,318.691132 268.648682,313.715820 
	C273.646515,307.310547 274.685944,300.060913 271.123749,292.534088 
	C267.705719,285.311859 262.285278,280.906555 253.912079,281.000031 
	C249.606415,281.048126 245.300888,281.109741 240.066620,281.036438 
	C230.377014,281.079254 220.687393,281.122101 210.068634,281.034515 
	C201.711670,281.077881 193.354691,281.121246 184.069092,281.033783 
	C177.712112,281.077576 171.355133,281.121368 164.071243,281.033020 
	C158.712769,281.077301 153.354294,281.121582 147.068176,281.033997 
	C141.044510,281.078094 135.020828,281.122192 128.121994,281.034882 
M262.068695,201.034546 
	C254.377701,201.077744 246.686707,201.120941 238.066940,201.035706 
	C229.043884,201.078796 220.020844,201.121872 210.068634,201.034485 
	C201.378342,201.077682 192.688065,201.120895 183.068665,201.033417 
	C174.710434,201.078094 166.352203,201.122772 157.065399,201.037857 
	C149.708511,201.081940 142.351639,201.126022 134.073776,201.036896 
	C131.419113,201.025604 128.763977,201.042770 126.109894,200.997787 
	C117.474289,200.851456 111.944534,205.516586 108.660141,212.917313 
	C105.246925,220.608276 106.603836,227.841522 111.899940,234.431030 
	C118.104256,242.150513 126.581268,241.287949 135.923752,240.969391 
	C143.280487,240.923767 150.637207,240.878143 158.922546,240.972855 
	C167.280960,240.927200 175.639374,240.881561 184.926437,240.972198 
	C193.616882,240.926483 202.307343,240.880768 211.926529,240.970688 
	C220.949585,240.925751 229.972656,240.880798 239.925018,240.971588 
	C247.615845,240.926239 255.306671,240.880890 263.926910,240.968964 
	C271.617249,240.924271 279.307587,240.879593 287.926910,240.968460 
	C298.617157,240.923874 309.307404,240.879288 320.926788,240.967468 
	C325.249084,240.978333 329.582520,240.796600 333.891113,241.045059 
	C340.401031,241.420441 345.513214,238.684616 349.452881,233.943329 
	C354.600189,227.748810 355.521362,220.538132 352.506897,213.124222 
	C349.702118,206.226044 344.378632,201.843887 336.933563,201.119354 
	C331.342682,200.575302 325.646790,201.110565 319.068726,201.036011 
	C308.378479,201.079025 297.688202,201.122055 286.068604,201.035828 
	C278.378235,201.078705 270.687866,201.121582 262.068695,201.034546 
z"/>
<path fill="#FFFFFF" opacity="1.000000" stroke="none" 
	d="
M95.000000,513.000000 
	C63.686256,513.000000 32.372517,513.000000 1.059583,513.000000 
	C1.060392,342.333313 1.060392,171.666656 1.060392,1.000000 
	C32.101418,1.000000 63.082050,1.000000 94.355766,1.358407 
	C87.097740,4.200169 79.546638,6.683524 71.637192,9.109399 
	C67.611534,11.348815 63.632278,13.274387 60.351082,16.030890 
	C55.600189,20.022070 51.354347,24.614441 46.586784,29.090620 
	C33.877331,42.893894 27.251305,59.356518 27.193306,77.397308 
	C26.809801,196.690750 26.946192,315.986084 27.125784,435.280518 
	C27.135738,441.892365 28.387505,448.686615 30.203903,455.070862 
	C33.390587,466.271454 38.098038,476.863007 46.944672,485.399292 
	C52.491776,493.290344 59.985218,498.381256 68.319962,503.002563 
	C69.577217,503.779236 70.434563,504.608124 71.456650,504.964569 
	C79.286385,507.694824 87.148178,510.333099 95.000000,513.000000 
z"/>
<path fill="#10E4FE" opacity="1.000000" stroke="none" 
	d="
M95.458069,513.000000 
	C87.148178,510.333099 79.286385,507.694824 71.456650,504.964569 
	C70.434563,504.608124 69.577217,503.779236 68.321335,502.545044 
	C67.999626,485.885193 67.905426,469.848328 68.095200,453.814850 
	C68.126328,451.185638 69.407173,448.571198 70.110428,445.949951 
	C75.791679,458.807434 84.880951,467.845032 98.813728,471.335815 
	C100.849365,471.845825 103.019775,471.817902 105.562210,472.560974 
	C105.997719,486.388702 105.998856,499.694366 106.000000,513.000000 
	C102.638710,513.000000 99.277428,513.000000 95.458069,513.000000 
z"/>
<path fill="#37C1FE" opacity="1.000000" stroke="none" 
	d="
M258.463196,513.000000 
	C251.957916,509.551666 245.836060,505.759277 244.904861,498.261444 
	C244.305084,493.432159 244.743011,488.134705 246.113693,483.456604 
	C253.437698,458.460236 261.201874,433.592834 269.372437,408.449615 
	C270.287384,410.078156 270.950073,411.937134 270.954437,413.797729 
	C271.031372,446.569580 271.027954,479.341583 271.041962,512.113586 
	C271.041962,512.113586 271.006592,512.556091 271.003296,512.778076 
	C266.975464,513.000000 262.950897,513.000000 258.463196,513.000000 
z"/>
<path fill="#19DCFE" opacity="1.000000" stroke="none" 
	d="
M131.995239,40.831951 
	C122.187675,41.224064 112.378143,41.574841 102.574265,42.043964 
	C100.665291,42.135315 98.778351,42.686935 96.449112,42.597961 
	C96.011314,28.446440 96.005653,14.723220 96.000000,1.000000 
	C107.687561,1.000000 119.375122,1.000000 131.531281,1.468657 
	C131.998322,14.902193 131.996780,27.867073 131.995239,40.831951 
z"/>
<path fill="#3BBEFE" opacity="1.000000" stroke="none" 
	d="
M292.996277,40.833607 
	C282.306030,40.878674 271.615784,40.923740 260.462219,40.444221 
	C259.999237,26.946426 259.999634,13.973213 260.000000,1.000000 
	C270.687561,1.000000 281.375122,1.000000 292.531342,1.468657 
	C292.998749,14.902745 292.997528,27.868176 292.996277,40.833607 
z"/>
<path fill="#40BAFE" opacity="1.000000" stroke="none" 
	d="
M293.461029,40.900688 
	C292.997528,27.868176 292.998749,14.902745 293.000000,1.468657 
	C303.687561,1.000000 314.375122,1.000000 325.531342,1.468657 
	C325.999115,14.902681 325.998230,27.868050 325.997375,40.833420 
	C315.306854,40.878204 304.616302,40.922989 293.461029,40.900688 
z"/>
<path fill="#45B5FE" opacity="1.000000" stroke="none" 
	d="
M365.541931,0.999998 
	C371.413849,2.669882 376.827667,4.339767 382.619720,6.544641 
	C382.998535,20.697811 383.037628,34.316238 382.951141,47.933861 
	C382.940277,49.642460 382.267334,51.346851 381.901184,53.053207 
	C377.058838,50.094688 372.449127,46.603054 367.296783,44.355076 
	C363.527588,42.710575 359.045074,42.700981 354.502960,41.495445 
	C354.416931,39.090858 354.947174,37.155155 354.960754,35.215839 
	C355.040619,23.811028 355.000000,12.405372 355.000000,1.000000 
	C358.361298,1.000000 361.722565,1.000000 365.541931,0.999998 
z"/>
<path fill="#43B7FE" opacity="1.000000" stroke="none" 
	d="
M354.531342,1.000000 
	C355.000000,12.405372 355.040619,23.811028 354.960754,35.215839 
	C354.947174,37.155155 354.416931,39.090858 354.064087,41.430439 
	C347.785889,41.555000 341.570282,41.243031 335.351593,41.015232 
	C332.546539,40.912479 329.735382,40.977436 326.462158,40.899857 
	C325.998230,27.868050 325.999115,14.902681 326.000000,1.468657 
	C335.354218,1.000000 344.708466,1.000000 354.531342,1.000000 
z"/>
<path fill="#10E4FE" opacity="1.000000" stroke="none" 
	d="
M95.750000,1.000000 
	C96.005653,14.723220 96.011314,28.446440 96.029053,42.646851 
	C86.656273,47.028271 78.348198,52.224697 73.187729,61.547485 
	C72.474068,59.374554 72.038750,57.425316 72.031418,55.474468 
	C71.973457,40.038780 71.997017,24.602781 71.995529,9.166880 
	C79.546638,6.683524 87.097740,4.200169 94.824425,1.358407 
	C95.000000,1.000000 95.500000,1.000000 95.750000,1.000000 
z"/>
<path fill="#34C4FE" opacity="1.000000" stroke="none" 
	d="
M259.531342,1.000000 
	C259.999634,13.973213 259.999237,26.946426 259.997803,40.376488 
	C251.306900,40.878693 242.617096,40.924042 233.463409,40.445206 
	C232.999695,26.947348 232.999847,13.973674 233.000000,1.000000 
	C241.687561,1.000000 250.375122,1.000000 259.531342,1.000000 
z"/>
<path fill="#27CFFE" opacity="1.000000" stroke="none" 
	d="
M168.997940,473.166992 
	C175.851639,472.525452 182.545517,472.551147 188.090652,477.587036 
	C199.286240,487.754303 197.003204,504.323181 183.451111,511.213409 
	C182.719635,511.585297 181.995407,511.971497 181.133911,512.675537 
	C177.307098,513.000000 173.614182,513.000000 169.460632,512.531372 
	C168.999313,499.097443 168.998627,486.132233 168.997940,473.166992 
z"/>
<path fill="#19DCFE" opacity="1.000000" stroke="none" 
	d="
M106.468582,513.000000 
	C105.998856,499.694366 105.997719,486.388702 105.994171,472.625916 
	C113.017189,472.456909 120.042603,472.745026 127.533340,473.556702 
	C127.999107,487.053497 127.999550,500.026733 128.000000,513.000000 
	C120.979050,513.000000 113.958107,513.000000 106.468582,513.000000 
z"/>
<path fill="#31C7FE" opacity="1.000000" stroke="none" 
	d="
M232.531433,1.000000 
	C232.999847,13.973674 232.999695,26.947348 232.999008,40.378067 
	C225.974442,40.880306 218.950409,40.925491 211.462845,40.445763 
	C210.999557,26.947229 210.999771,13.973615 211.000000,1.000000 
	C218.020950,1.000000 225.041901,1.000000 232.531433,1.000000 
z"/>
<path fill="#27CFFE" opacity="1.000000" stroke="none" 
	d="
M192.995316,40.832245 
	C185.972214,40.877766 178.949097,40.923286 171.462463,40.443340 
	C170.999298,26.945251 170.999649,13.972626 171.000000,1.000000 
	C178.020950,1.000000 185.041901,1.000000 192.531357,1.468657 
	C192.998352,14.902293 192.996826,27.867271 192.995316,40.832245 
z"/>
<path fill="#23D3FE" opacity="1.000000" stroke="none" 
	d="
M170.531464,1.000000 
	C170.999649,13.972626 170.999298,26.945251 170.998260,40.374870 
	C164.306763,40.878193 157.615967,40.924519 150.461975,40.444664 
	C149.999191,26.945654 149.999603,13.972827 150.000000,1.000000 
	C156.687637,1.000000 163.375290,1.000000 170.531464,1.000000 
z"/>
<path fill="#1ED7FE" opacity="1.000000" stroke="none" 
	d="
M128.468536,513.000000 
	C127.999550,500.026733 127.999107,487.053497 127.997299,473.622955 
	C134.686478,473.121918 141.377029,473.078186 148.533020,473.557617 
	C148.998978,487.053894 148.999496,500.026947 149.000000,513.000000 
	C142.312363,513.000000 135.624710,513.000000 128.468536,513.000000 
z"/>
<path fill="#23D3FE" opacity="1.000000" stroke="none" 
	d="
M149.468414,513.000000 
	C148.999496,500.026947 148.998978,487.053894 148.997070,473.623657 
	C155.353622,473.122467 161.711578,473.078430 168.533737,473.100708 
	C168.998627,486.132233 168.999313,499.097443 169.000000,512.531372 
	C162.645599,513.000000 156.291214,513.000000 149.468414,513.000000 
z"/>
<path fill="#2CCBFE" opacity="1.000000" stroke="none" 
	d="
M193.459229,40.900894 
	C192.996826,27.867271 192.998352,14.902293 192.999939,1.468657 
	C198.688034,1.000000 204.376083,1.000000 210.532059,1.000000 
	C210.999771,13.973615 210.999557,26.947229 210.998566,40.377945 
	C205.306229,40.879879 199.614685,40.924706 193.459229,40.900894 
z"/>
<path fill="#1ED7FE" opacity="1.000000" stroke="none" 
	d="
M149.532059,1.000000 
	C149.999603,13.972827 149.999191,26.945654 149.997864,40.375595 
	C144.305557,40.878826 138.614212,40.924946 132.459045,40.901512 
	C131.996780,27.867073 131.998322,14.902193 131.999939,1.468657 
	C137.688034,1.000000 143.376083,1.000000 149.532059,1.000000 
z"/>
<path fill="#09EAFE" opacity="1.000000" stroke="none" 
	d="
M71.637192,9.109399 
	C71.997017,24.602781 71.973457,40.038780 72.031418,55.474468 
	C72.038750,57.425316 72.474068,59.374554 72.880096,61.715828 
	C71.364738,68.512825 68.227684,74.914864 68.211533,81.324776 
	C67.916512,198.410797 67.975212,315.497772 68.080963,432.584412 
	C68.084740,436.764984 69.339661,440.944427 70.060959,445.537170 
	C69.407173,448.571198 68.126328,451.185638 68.095200,453.814850 
	C67.905426,469.848328 67.999626,485.885193 67.997734,502.378418 
	C59.985218,498.381256 52.491776,493.290344 47.259583,485.114288 
	C47.683472,483.010559 47.980137,481.539368 47.980347,480.068146 
	C48.001377,331.406342 48.003719,182.744568 47.954124,34.082783 
	C47.953552,32.371857 47.262043,30.661160 46.893063,28.950356 
	C51.354347,24.614441 55.600189,20.022070 60.351082,16.030890 
	C63.632278,13.274387 67.611534,11.348815 71.637192,9.109399 
z"/>
<path fill="#4BAFFE" opacity="1.000000" stroke="none" 
	d="
M381.952698,53.402740 
	C382.267334,51.346851 382.940277,49.642460 382.951141,47.933861 
	C383.037628,34.316238 382.998535,20.697811 382.996216,6.623198 
	C403.015533,13.877630 417.325592,27.779198 426.410217,47.000629 
	C431.141266,57.010632 433.950958,67.687042 433.970367,78.859627 
	C434.042450,120.348740 433.775970,161.840134 434.162903,203.325775 
	C434.254608,213.158478 425.546478,224.527771 412.757751,224.343704 
	C403.217407,224.206375 392.742188,214.561249 392.853302,203.449463 
	C393.233124,165.463120 392.796509,127.468956 393.108612,89.481369 
	C393.217804,76.193169 391.125916,63.982475 381.952698,53.402740 
z"/>
<path fill="#4AB0FE" opacity="1.000000" stroke="none" 
	d="
M370.895721,302.948059 
	C379.580475,293.392609 388.331024,283.691986 400.398956,278.489624 
	C406.889130,275.691803 414.198456,274.794128 421.568665,273.559326 
	C422.332214,287.330811 422.665253,300.582123 422.629761,313.911713 
	C416.838898,315.235565 413.059875,318.644653 408.899567,324.592407 
	C413.555145,328.640381 418.295990,332.762512 423.017090,337.314819 
	C422.664886,340.852570 422.059021,343.958893 422.044678,347.067902 
	C421.955872,366.319366 421.921631,385.571960 422.047821,404.823029 
	C422.085602,410.587494 422.694733,416.348236 423.042114,422.110718 
	C406.579254,438.677856 390.116364,455.245026 373.181885,471.567749 
	C372.473541,469.369965 372.039093,467.417389 372.031464,465.463135 
	C371.973907,450.666504 372.036163,435.869385 371.950867,421.073029 
	C371.941040,419.367310 371.255157,417.665497 371.031494,415.659241 
	C383.335785,403.385345 395.491272,391.414032 407.393799,379.691864 
	C397.812592,370.114594 389.016296,361.321930 380.082092,352.391388 
	C377.879730,354.181702 375.458466,356.149933 372.873352,357.725067 
	C372.472992,355.377838 372.039337,353.424469 372.031494,351.469421 
	C371.973389,337.003113 372.036560,322.536224 371.951355,308.070160 
	C371.941284,306.360779 371.263824,304.655334 370.895721,302.948059 
z"/>
<path fill="#4DADFE" opacity="1.000000" stroke="none" 
	d="
M423.343994,421.962006 
	C422.694733,416.348236 422.085602,410.587494 422.047821,404.823029 
	C421.921631,385.571960 421.955872,366.319366 422.044678,347.067902 
	C422.059021,343.958893 422.664886,340.852570 423.319336,337.464111 
	C427.774475,341.505676 431.907562,345.828125 435.979980,350.087097 
	C446.718536,341.954620 448.064056,331.939087 443.433655,323.830444 
	C438.825287,315.760437 431.698547,313.302185 422.998291,313.833405 
	C422.665253,300.582123 422.332214,287.330811 421.998413,273.622925 
	C440.006317,271.331879 455.643433,277.089569 468.532715,289.288757 
	C478.276062,298.510468 483.932007,310.229126 486.124817,323.761047 
	C488.752625,339.977234 484.707367,354.381531 475.993958,367.787018 
	C473.856873,371.074829 471.261597,374.140625 468.496735,376.931824 
	C453.612549,391.957825 438.608521,406.865082 423.343994,421.962006 
z"/>
<path fill="#3CBDFE" opacity="1.000000" stroke="none" 
	d="
M271.447113,512.069580 
	C271.027954,479.341583 271.031372,446.569580 270.954437,413.797729 
	C270.950073,411.937134 270.287384,410.078156 269.548859,408.113525 
	C270.946655,405.001007 272.251068,401.543243 274.593811,399.068237 
	C282.309723,390.916718 290.401611,383.121063 298.819794,375.432800 
	C299.526978,377.620117 299.963013,379.562805 299.968842,381.506775 
	C300.021942,399.205048 299.945038,416.903992 300.079987,434.601379 
	C300.094452,436.497864 301.215393,438.385895 301.805054,440.693085 
	C299.946442,446.863739 297.973145,452.582367 296.360321,458.400940 
	C295.966644,459.821198 296.755219,461.569153 297.000092,463.624664 
	C296.999023,477.666534 296.998108,491.250153 296.997192,504.833801 
	C288.615540,507.231079 280.233917,509.628357 271.447113,512.069580 
z"/>
<path fill="#45B5FE" opacity="1.000000" stroke="none" 
	d="
M370.598083,303.091736 
	C371.263824,304.655334 371.941284,306.360779 371.951355,308.070160 
	C372.036560,322.536224 371.973389,337.003113 372.031494,351.469421 
	C372.039337,353.424469 372.472992,355.377838 372.731659,358.021393 
	C359.848145,371.512726 346.942474,384.314667 333.978943,396.693970 
	C333.614014,394.004395 333.053253,391.738831 333.040680,389.470276 
	C332.950958,373.276428 332.973022,357.082031 332.959534,340.887787 
	C345.406525,328.337006 357.853485,315.786224 370.598083,303.091736 
z"/>
<path fill="#45B5FE" opacity="1.000000" stroke="none" 
	d="
M370.882721,415.961853 
	C371.255157,417.665497 371.941040,419.367310 371.950867,421.073029 
	C372.036163,435.869385 371.973907,450.666504 372.031464,465.463135 
	C372.039093,467.417389 372.473541,469.369965 372.879883,471.714966 
	C362.922913,485.485596 349.453369,493.002167 332.433014,494.597015 
	C332.007812,480.498993 332.002625,466.832336 332.342163,453.088165 
	C334.080994,451.883087 335.581116,450.863190 336.852570,449.611176 
	C348.218842,438.417999 359.544830,427.183899 370.882721,415.961853 
z"/>
<path fill="#40BAFE" opacity="1.000000" stroke="none" 
	d="
M332.657837,341.037170 
	C332.973022,357.082031 332.950958,373.276428 333.040680,389.470276 
	C333.053253,391.738831 333.614014,394.004395 333.837830,396.990723 
	C326.936707,404.539520 320.480072,411.788300 313.188904,418.068176 
	C307.140717,423.277466 304.760498,429.875977 302.984711,437.087006 
	C302.715637,438.179688 302.216003,439.215668 301.823029,440.277863 
	C301.215393,438.385895 300.094452,436.497864 300.079987,434.601379 
	C299.945038,416.903992 300.021942,399.205048 299.968842,381.506775 
	C299.963013,379.562805 299.526978,377.620117 299.121704,375.285034 
	C310.087311,363.657684 321.221710,352.422089 332.657837,341.037170 
z"/>
<path fill="#3CBDFE" opacity="1.000000" stroke="none" 
	d="
M311.994904,160.832779 
	C299.305420,160.877563 286.615967,160.922363 273.462708,160.443176 
	C272.998505,147.001877 272.998077,134.084564 272.997620,121.167244 
	C285.687134,121.124641 298.376617,121.082039 311.532104,121.560028 
	C311.996979,134.998001 311.995941,147.915390 311.994904,160.832779 
z"/>
<path fill="#43B7FE" opacity="1.000000" stroke="none" 
	d="
M312.459717,160.900421 
	C311.995941,147.915390 311.996979,134.998001 311.996460,121.623909 
	C320.307404,121.111824 328.653168,120.573967 336.922577,121.144150 
	C344.377258,121.658173 349.695831,126.223358 352.504303,133.121429 
	C355.523804,140.537720 354.600433,147.750595 349.449005,153.947617 
	C345.505707,158.691299 340.390045,161.323334 333.877838,161.061005 
	C326.903442,160.780045 319.909790,160.978729 312.459717,160.900421 
z"/>
<path fill="#40BAFE" opacity="1.000000" stroke="none" 
	d="
M331.997406,453.165710 
	C332.002625,466.832336 332.007812,480.498993 332.023743,494.643341 
	C320.621338,498.401276 309.208191,501.681488 297.396118,504.897766 
	C296.998108,491.250153 296.999023,477.666534 297.338928,463.444916 
	C309.117737,459.593201 320.557587,456.379456 331.997406,453.165710 
z"/>
<path fill="#40BAFE" opacity="1.000000" stroke="none" 
	d="
M319.997650,240.834702 
	C309.307404,240.879288 298.617157,240.923874 287.463196,240.444794 
	C286.998962,227.002457 286.998474,214.083771 286.997955,201.165085 
	C297.688202,201.122055 308.378479,201.079025 319.533997,201.557465 
	C319.998718,214.997513 319.998169,227.916107 319.997650,240.834702 
z"/>
<path fill="#43B7FE" opacity="1.000000" stroke="none" 
	d="
M320.462219,240.901093 
	C319.998169,227.916107 319.998718,214.997513 319.998474,201.622101 
	C325.646790,201.110565 331.342682,200.575302 336.933563,201.119354 
	C344.378632,201.843887 349.702118,206.226044 352.506897,213.124222 
	C355.521362,220.538132 354.600189,227.748810 349.452881,233.943329 
	C345.513214,238.684616 340.401031,241.420441 333.891113,241.045059 
	C329.582520,240.796600 325.249084,240.978333 320.462219,240.901093 
z"/>
<path fill="#31C7FE" opacity="1.000000" stroke="none" 
	d="
M210.997787,281.164948 
	C220.687393,281.122101 230.377014,281.079254 240.532562,281.557861 
	C240.997452,294.997772 240.996384,307.916260 240.995316,320.834778 
	C231.305725,320.880066 221.616119,320.925385 211.462921,320.445770 
	C210.998810,307.002197 210.998291,294.083588 210.997787,281.164948 
z"/>
<path fill="#37C1FE" opacity="1.000000" stroke="none" 
	d="
M272.533020,121.102264 
	C272.998077,134.084564 272.998505,147.001877 272.998260,160.375977 
	C263.640106,160.878174 254.282639,160.923615 244.461884,160.444122 
	C243.997849,147.001831 243.997070,134.084457 243.996307,121.167099 
	C253.353683,121.123833 262.711060,121.080566 272.533020,121.102264 
z"/>
<path fill="#37C1FE" opacity="1.000000" stroke="none" 
	d="
M241.459473,320.902710 
	C240.996384,307.916260 240.997452,294.997772 240.996918,281.622284 
	C245.300888,281.109741 249.606415,281.048126 253.912079,281.000031 
	C262.285278,280.906555 267.705719,285.311859 271.123749,292.534088 
	C274.685944,300.060913 273.646515,307.310547 268.648682,313.715820 
	C264.766571,318.691132 259.620178,321.657928 252.856567,321.056946 
	C249.238266,320.735474 245.569565,320.980988 241.459473,320.902710 
z"/>
<path fill="#31C7FE" opacity="1.000000" stroke="none" 
	d="
M243.531799,121.102356 
	C243.997070,134.084457 243.997849,147.001831 243.997467,160.376053 
	C234.972885,160.878235 225.949448,160.923553 216.462463,160.443817 
	C215.998398,147.001633 215.997864,134.084488 215.997330,121.167328 
	C225.020645,121.124084 234.043961,121.080849 243.531799,121.102356 
z"/>
<path fill="#31C7FE" opacity="1.000000" stroke="none" 
	d="
M238.995712,240.835861 
	C229.972656,240.880798 220.949585,240.925751 211.462936,240.445770 
	C210.998825,227.002213 210.998306,214.083588 210.997787,201.164963 
	C220.020844,201.121872 229.043884,201.078796 238.532898,201.557007 
	C238.997803,214.997498 238.996750,227.916672 238.995712,240.835861 
z"/>
<path fill="#2CCBFE" opacity="1.000000" stroke="none" 
	d="
M215.532837,121.101852 
	C215.997864,134.084488 215.998398,147.001633 215.998108,160.375732 
	C207.306808,160.878571 198.616318,160.924500 189.462387,160.444962 
	C188.998367,147.001801 188.997757,134.084076 188.997162,121.166351 
	C197.687546,121.123024 206.377945,121.079697 215.532837,121.101852 
z"/>
<path fill="#2CCBFE" opacity="1.000000" stroke="none" 
	d="
M210.533203,201.099731 
	C210.998306,214.083588 210.998825,227.002213 210.998566,240.377930 
	C202.307343,240.880768 193.616882,240.926483 184.462967,240.446823 
	C183.998917,227.002335 183.998337,214.083206 183.997772,201.164093 
	C192.688065,201.120895 201.378342,201.077682 210.533203,201.099731 
z"/>
<path fill="#2CCBFE" opacity="1.000000" stroke="none" 
	d="
M210.533203,281.099731 
	C210.998291,294.083588 210.998810,307.002197 210.998566,320.377930 
	C202.640640,320.880646 194.283508,320.926270 185.462891,320.446442 
	C184.998840,307.002228 184.998291,294.083405 184.997726,281.164612 
	C193.354691,281.121246 201.711670,281.077881 210.533203,281.099731 
z"/>
<path fill="#27CFFE" opacity="1.000000" stroke="none" 
	d="
M183.533218,201.098755 
	C183.998337,214.083206 183.998917,227.002335 183.998642,240.378693 
	C175.639374,240.881561 167.280960,240.927200 158.460083,240.445618 
	C157.996384,227.001404 157.995178,214.084442 157.993973,201.167465 
	C166.352203,201.122772 174.710434,201.078094 183.533218,201.098755 
z"/>
<path fill="#19DCFE" opacity="1.000000" stroke="none" 
	d="
M134.994797,240.829895 
	C126.581268,241.287949 118.104256,242.150513 111.899940,234.431030 
	C106.603836,227.841522 105.246925,220.608276 108.660141,212.917313 
	C111.944534,205.516586 117.474289,200.851456 126.109894,200.997787 
	C128.763977,201.042770 131.419113,201.025604 134.535767,201.560471 
	C134.996765,214.999329 134.995789,227.914612 134.994797,240.829895 
z"/>
<path fill="#37C1FE" opacity="1.000000" stroke="none" 
	d="
M239.460358,240.903717 
	C238.996750,227.916672 238.997803,214.997498 238.997284,201.621216 
	C246.686707,201.120941 254.377701,201.077744 262.533997,201.556488 
	C262.998657,214.997482 262.998077,227.916504 262.997498,240.835541 
	C255.306671,240.880890 247.615845,240.926239 239.460358,240.903717 
z"/>
<path fill="#3BBEFE" opacity="1.000000" stroke="none" 
	d="
M263.462219,240.902252 
	C262.998077,227.916504 262.998657,214.997482 262.998383,201.621460 
	C270.687866,201.121582 278.378235,201.078705 286.533264,201.100464 
	C286.998474,214.083771 286.998962,227.002457 286.998688,240.378021 
	C279.307587,240.879593 271.617249,240.924271 263.462219,240.902252 
z"/>
<path fill="#27CFFE" opacity="1.000000" stroke="none" 
	d="
M188.532715,121.100784 
	C188.997757,134.084076 188.998367,147.001801 188.998062,160.376572 
	C181.306992,160.879486 173.616837,160.925339 165.463043,160.445770 
	C164.998993,147.001984 164.998566,134.083603 164.998138,121.165207 
	C172.688187,121.121872 180.378220,121.078545 188.532715,121.100784 
z"/>
<path fill="#1ED7FE" opacity="1.000000" stroke="none" 
	d="
M135.459274,240.899643 
	C134.995789,227.914612 134.996765,214.999329 134.996246,201.627075 
	C142.351639,201.126022 149.708511,201.081940 157.529694,201.102661 
	C157.995178,214.084442 157.996384,227.001404 157.995773,240.375458 
	C150.637207,240.878143 143.280487,240.923767 135.459274,240.899643 
z"/>
<path fill="#27CFFE" opacity="1.000000" stroke="none" 
	d="
M184.533417,281.099182 
	C184.998291,294.083405 184.998840,307.002228 184.998566,320.378174 
	C178.640549,320.880615 172.283386,320.925873 165.462814,320.445740 
	C164.998993,307.001984 164.998581,294.083588 164.998154,281.165161 
	C171.355133,281.121368 177.712112,281.077576 184.533417,281.099182 
z"/>
<path fill="#1ED7FE" opacity="1.000000" stroke="none" 
	d="
M147.995834,320.834167 
	C141.972168,320.880249 135.948486,320.926361 129.461914,320.445862 
	C128.998398,307.001587 128.997787,294.083923 128.997162,281.166260 
	C135.020828,281.122192 141.044510,281.078094 147.533386,281.557129 
	C147.997696,294.998230 147.996765,307.916199 147.995834,320.834167 
z"/>
<path fill="#19DCFE" opacity="1.000000" stroke="none" 
	d="
M128.995758,160.833740 
	C116.355385,163.299423 107.529449,151.305298 106.874916,142.446686 
	C106.029633,131.006454 116.485481,118.971741 128.559784,121.557846 
	C128.997620,134.998413 128.996689,147.916077 128.995758,160.833740 
z"/>
<path fill="#19DCFE" opacity="1.000000" stroke="none" 
	d="
M128.559570,281.100586 
	C128.997787,294.083923 128.998398,307.001587 128.998077,320.376495 
	C116.353668,323.299408 107.529549,311.304321 106.874931,302.446930 
	C106.029526,291.008240 116.483192,278.971893 128.559570,281.100586 
z"/>
<path fill="#23D3FE" opacity="1.000000" stroke="none" 
	d="
M164.534363,121.099113 
	C164.998566,134.083603 164.998993,147.001984 164.998764,160.377594 
	C159.306854,160.880692 153.615585,160.926590 147.461746,160.446350 
	C146.998520,147.001907 146.997879,134.083588 146.997238,121.165276 
	C152.688354,121.121193 158.379456,121.077110 164.534363,121.099113 
z"/>
<path fill="#1ED7FE" opacity="1.000000" stroke="none" 
	d="
M146.533508,121.099358 
	C146.997879,134.083588 146.998520,147.001907 146.998199,160.377472 
	C141.305923,160.880646 135.614609,160.926559 129.459534,160.903107 
	C128.996689,147.916077 128.997620,134.998413 128.997162,121.623497 
	C134.687103,121.121979 140.378448,121.077713 146.533508,121.099358 
z"/>
<path fill="#23D3FE" opacity="1.000000" stroke="none" 
	d="
M148.459290,320.903076 
	C147.996765,307.916199 147.997696,294.998230 147.997223,281.623077 
	C153.354294,281.121582 158.712769,281.077301 164.534698,281.099121 
	C164.998581,294.083588 164.998993,307.001984 164.998764,320.377563 
	C159.639664,320.880524 154.281204,320.926270 148.459290,320.903076 
z"/>
<path fill="#03EFFE" opacity="1.000000" stroke="none" 
	d="
M46.586784,29.090620 
	C47.262043,30.661160 47.953552,32.371857 47.954124,34.082783 
	C48.003719,182.744568 48.001377,331.406342 47.980347,480.068146 
	C47.980137,481.539368 47.683472,483.010559 47.210300,484.766724 
	C38.098038,476.863007 33.390587,466.271454 30.203903,455.070862 
	C28.387505,448.686615 27.135738,441.892365 27.125784,435.280518 
	C26.946192,315.986084 26.809801,196.690750 27.193306,77.397308 
	C27.251305,59.356518 33.877331,42.893894 46.586784,29.090620 
z"/>
<path fill="#FFFFFF" opacity="1.000000" stroke="none" 
	d="
M332.342163,453.088165 
	C320.557587,456.379456 309.117737,459.593201 297.339081,462.986694 
	C296.755219,461.569153 295.966644,459.821198 296.360321,458.400940 
	C297.973145,452.582367 299.946442,446.863739 301.805054,440.693085 
	C302.216003,439.215668 302.715637,438.179688 302.984711,437.087006 
	C304.760498,429.875977 307.140717,423.277466 313.188904,418.068176 
	C320.480072,411.788300 326.936707,404.539520 333.895691,397.413391 
	C346.942474,384.314667 359.848145,371.512726 372.895508,358.414490 
	C375.458466,356.149933 377.879730,354.181702 380.082092,352.391388 
	C389.016296,361.321930 397.812592,370.114594 407.393799,379.691864 
	C395.491272,391.414032 383.335785,403.385345 371.031494,415.659241 
	C359.544830,427.183899 348.218842,438.417999 336.852570,449.611176 
	C335.581116,450.863190 334.080994,451.883087 332.342163,453.088165 
z"/>
<path fill="#FFFFFF" opacity="1.000000" stroke="none" 
	d="
M422.629761,313.911713 
	C431.698547,313.302185 438.825287,315.760437 443.433655,323.830444 
	C448.064056,331.939087 446.718536,341.954620 435.979980,350.087097 
	C431.907562,345.828125 427.774475,341.505676 423.339111,337.033936 
	C418.295990,332.762512 413.555145,328.640381 408.899567,324.592407 
	C413.059875,318.644653 416.838898,315.235565 422.629761,313.911713 
z"/>
</svg>