<?xml version="1.0" standalone="no"?>
<!DOCTYPE svg PUBLIC "-//W3C//DTD SVG 20010904//EN"
 "http://www.w3.org/TR/2001/REC-SVG-20010904/DTD/svg10.dtd">
<svg version="1.0" xmlns="http://www.w3.org/2000/svg"
 width="344.000000pt" height="344.000000pt" viewBox="0 0 344.000000 344.000000"
 preserveAspectRatio="xMidYMid meet">

<g transform="translate(0.000000,344.000000) scale(0.100000,-0.100000)"
fill="#000000" stroke="none">
<path d="M1525 3047 c-58 -22 -104 -58 -134 -104 -32 -49 -38 -69 -49 -174
l-7 -66 -220 59 c-142 38 -231 57 -250 53 -39 -7 -90 -38 -109 -67 -15 -24
-236 -835 -236 -867 0 -28 35 -54 64 -47 30 7 26 -4 157 486 50 190 98 355
105 368 8 12 24 22 37 22 12 0 120 -26 239 -57 l218 -58 0 -132 c0 -199 27
-290 110 -373 43 -43 135 -100 162 -100 24 0 48 28 48 55 0 24 -5 29 -94 88
-33 22 -59 51 -80 87 l-31 55 -3 282 c-3 315 -3 318 65 370 30 23 46 28 94 28
65 0 98 -18 137 -75 21 -32 22 -40 22 -286 0 -250 0 -253 -22 -268 -30 -21
-44 -20 -68 4 -19 19 -20 33 -20 255 l0 235 -25 16 c-23 15 -27 15 -50 0 l-25
-16 0 -246 c0 -272 4 -294 63 -336 47 -34 132 -37 176 -6 57 39 73 69 79 148
4 58 8 70 20 65 8 -3 44 -13 79 -21 34 -9 63 -20 63 -25 0 -5 -20 -82 -44
-171 -24 -90 -46 -173 -49 -186 -11 -46 16 -59 263 -126 187 -50 235 -67 234
-79 -1 -9 -82 -317 -180 -683 -149 -558 -182 -669 -200 -681 -19 -12 -81 2
-640 152 -341 91 -704 189 -809 216 -104 28 -200 57 -213 65 -14 9 -22 24 -22
42 0 15 43 186 95 381 98 367 100 382 55 396 -29 9 -57 -10 -69 -47 -5 -18
-51 -188 -101 -377 -97 -363 -101 -389 -62 -440 10 -14 29 -33 43 -43 13 -9
395 -117 849 -238 639 -172 834 -221 867 -217 58 6 101 41 128 101 l23 52 278
73 c154 41 287 81 296 90 44 42 418 564 418 583 0 19 -320 1229 -371 1400 -22
74 -54 110 -117 128 -33 10 -69 2 -351 -72 -265 -70 -316 -87 -329 -106 -18
-27 -5 -66 25 -74 10 -3 149 30 308 73 160 43 300 79 311 79 12 0 27 -7 34
-15 11 -13 370 -1334 370 -1361 0 -6 -39 -22 -86 -34 -93 -25 -114 -39 -114
-74 0 -37 23 -49 80 -42 28 4 50 4 50 2 0 -8 -231 -321 -239 -324 -6 -2 -71
219 -71 241 0 4 18 12 40 18 22 7 45 18 51 25 15 18 7 65 -13 77 -23 15 -160
-18 -184 -44 -20 -22 -20 -24 50 -282 l34 -127 -26 -7 c-15 -3 -112 -30 -217
-58 -104 -28 -191 -48 -193 -44 -2 4 72 287 164 630 158 588 166 624 152 649
-24 42 -396 546 -414 561 -9 8 -71 28 -138 45 l-121 31 -5 149 c-5 137 -8 154
-33 206 -46 94 -136 149 -241 147 -28 0 -65 -6 -81 -12z m735 -898 c66 -89
118 -164 117 -166 -3 -2 -308 77 -314 81 -2 2 52 214 63 245 6 18 -5 30 134
-160z"/>
<path d="M1200 1710 c-23 -23 -25 -39 -7 -63 8 -11 135 -50 385 -117 206 -55
381 -100 391 -100 44 0 58 69 19 94 -20 12 -732 206 -758 206 -5 0 -19 -9 -30
-20z"/>
<path d="M862 1474 c-29 -20 -29 -59 1 -78 22 -15 988 -276 1019 -276 39 0 65
64 35 89 -10 8 -1010 281 -1029 281 -2 0 -14 -7 -26 -16z"/>
<path d="M782 1164 c-25 -17 -29 -56 -9 -76 8 -7 138 -46 290 -87 269 -72 277
-74 297 -56 27 24 26 61 -2 79 -13 8 -135 44 -273 81 -137 36 -257 68 -265 70
-9 3 -26 -2 -38 -11z"/>
<path d="M1495 956 c-18 -28 -9 -59 23 -74 42 -21 272 -74 296 -68 35 9 46 51
20 76 -18 18 -260 90 -303 90 -11 0 -28 -11 -36 -24z"/>
</g>
</svg>
