<?xml version="1.0" standalone="no"?>
<!DOCTYPE svg PUBLIC "-//W3C//DTD SVG 20010904//EN"
 "http://www.w3.org/TR/2001/REC-SVG-20010904/DTD/svg10.dtd">
<svg version="1.0" xmlns="http://www.w3.org/2000/svg"
 width="344.000000pt" height="344.000000pt" viewBox="0 0 344.000000 344.000000"
 preserveAspectRatio="xMidYMid meet">

<g transform="translate(0.000000,344.000000) scale(0.100000,-0.100000)"
fill="#000000" stroke="none">
<path d="M1658 2671 c-810 -256 -1355 -434 -1367 -445 -24 -22 -27 -54 -7 -81
8 -11 270 -118 671 -274 l659 -257 256 -658 c158 -407 263 -664 275 -672 28
-20 59 -17 82 8 20 24 873 2705 873 2747 0 30 -35 61 -67 60 -16 -1 -634 -193
-1375 -428z m562 -356 c-311 -311 -569 -565 -575 -565 -10 0 -1059 406 -1085
420 -9 5 39 25 140 57 85 26 582 184 1105 349 522 166 957 302 965 303 8 1
-239 -253 -550 -564z m336 -571 c-178 -566 -337 -1067 -351 -1113 -18 -57 -30
-80 -35 -70 -10 17 -411 1047 -418 1073 -4 14 128 151 559 582 310 310 565
562 567 560 2 -2 -143 -467 -322 -1032z"/>
</g>
</svg>
