<?xml version="1.0" standalone="no"?>
<!DOCTYPE svg PUBLIC "-//W3C//DTD SVG 20010904//EN"
 "http://www.w3.org/TR/2001/REC-SVG-20010904/DTD/svg10.dtd">
<svg version="1.0" xmlns="http://www.w3.org/2000/svg"
 width="344.000000pt" height="344.000000pt" viewBox="0 0 344.000000 344.000000"
 preserveAspectRatio="xMidYMid meet">

<g transform="translate(0.000000,344.000000) scale(0.100000,-0.100000)"
fill="#000000" stroke="none">
<path d="M1527 3429 c-180 -20 -400 -85 -561 -164 -377 -185 -678 -504 -832
-884 l-43 -106 42 -17 c23 -9 47 -17 53 -17 6 -1 26 37 44 84 40 103 110 229
187 338 68 95 231 263 323 333 373 282 858 393 1310 298 200 -41 432 -143 600
-262 122 -86 296 -260 382 -382 79 -112 175 -300 213 -420 15 -47 30 -88 34
-91 7 -9 101 21 101 31 0 5 -16 55 -36 112 -217 628 -773 1071 -1439 1148
-102 11 -277 11 -378 -1z"/>
<path d="M1569 2933 c-72 -37 -106 -87 -118 -174 -5 -37 -14 -77 -21 -89 -6
-12 -41 -35 -76 -52 -73 -34 -117 -33 -150 3 -42 46 -106 74 -169 74 -72 -1
-109 -18 -183 -89 -81 -76 -107 -127 -107 -207 0 -68 8 -86 77 -172 28 -35 27
-77 -5 -149 -30 -66 -55 -83 -141 -91 -80 -8 -132 -44 -168 -116 -25 -48 -28
-66 -28 -145 0 -50 5 -108 11 -129 21 -78 111 -146 192 -147 70 0 105 -23 133
-87 33 -73 34 -115 6 -150 -78 -98 -95 -155 -72 -240 19 -69 154 -204 223
-223 85 -23 142 -6 240 72 36 29 79 28 150 -5 64 -29 87 -64 87 -134 1 -81 71
-171 150 -193 48 -13 194 -13 241 1 83 25 149 113 149 200 0 68 26 101 104
133 79 31 99 28 164 -25 110 -92 228 -74 348 53 71 74 88 111 89 183 0 63 -28
127 -74 169 -36 33 -37 77 -2 151 32 70 66 95 129 95 72 0 149 47 185 113 19
37 22 57 22 157 0 104 -2 119 -25 160 -37 66 -90 98 -179 109 -86 11 -106 26
-140 110 -26 62 -23 107 10 137 32 29 67 95 74 139 12 75 -9 121 -98 213 -68
69 -90 85 -134 98 -32 9 -66 13 -90 8 -44 -7 -109 -42 -137 -73 -30 -33 -75
-36 -137 -10 -82 34 -99 55 -109 133 -11 93 -48 151 -119 188 -48 25 -64 28
-150 28 -86 0 -104 -3 -152 -27z m278 -115 c21 -21 28 -41 35 -95 12 -104 45
-149 143 -198 103 -50 175 -55 245 -14 25 15 54 36 64 48 24 26 77 37 107 21
34 -18 118 -100 136 -134 18 -35 10 -86 -18 -112 -46 -41 -74 -106 -74 -169 0
-50 7 -73 40 -140 49 -98 94 -131 198 -143 54 -7 74 -14 95 -36 26 -25 27 -31
27 -126 0 -95 -1 -101 -27 -127 -22 -22 -40 -28 -93 -34 -103 -10 -150 -45
-200 -144 -51 -102 -55 -175 -14 -245 15 -25 36 -54 48 -64 28 -26 36 -77 18
-112 -18 -34 -102 -116 -136 -134 -30 -16 -83 -5 -107 21 -10 12 -39 33 -64
48 -70 41 -143 37 -245 -14 -99 -49 -131 -94 -143 -198 -7 -54 -14 -74 -36
-95 -25 -26 -31 -27 -126 -27 -95 0 -101 1 -126 27 -22 21 -29 41 -36 95 -12
104 -45 149 -143 198 -67 33 -90 40 -140 40 -63 0 -128 -28 -169 -74 -24 -26
-77 -37 -107 -21 -34 18 -118 100 -136 134 -18 35 -10 86 18 112 46 41 74 106
74 169 0 50 -7 73 -40 140 -50 99 -98 134 -200 144 -53 6 -71 12 -93 34 -26
26 -27 32 -27 127 0 95 1 101 27 126 21 22 41 29 95 36 104 12 149 45 198 143
33 67 40 90 40 140 0 63 -28 128 -74 169 -28 26 -36 77 -18 112 18 34 102 116
136 134 30 16 83 5 107 -21 41 -46 106 -74 169 -74 50 0 73 7 140 40 98 49
131 94 143 198 13 107 42 128 174 124 80 -2 90 -4 115 -29z"/>
<path d="M1565 2346 c-126 -30 -268 -122 -349 -225 -91 -117 -138 -251 -138
-401 0 -150 47 -284 138 -401 84 -106 235 -201 362 -228 75 -16 227 -14 297 4
227 58 412 242 470 470 19 73 21 212 5 291 -27 132 -121 283 -229 368 -70 54
-182 109 -259 125 -69 14 -233 13 -297 -3z m290 -111 c135 -35 268 -140 332
-261 113 -213 75 -462 -97 -634 -105 -105 -217 -150 -373 -150 -154 0 -294 62
-396 176 -90 101 -131 212 -131 354 0 153 46 266 150 370 70 70 155 121 241
144 72 19 201 20 274 1z"/>
<path d="M57 2153 c-3 -4 -12 -42 -21 -83 -122 -595 79 -1212 529 -1620 239
-217 551 -370 865 -424 115 -20 325 -31 400 -22 l55 7 -3 52 -4 52 -171 1
c-144 1 -193 5 -298 27 -663 138 -1152 640 -1275 1310 -24 129 -24 410 0 532
31 161 30 152 10 158 -47 14 -83 17 -87 10z"/>
<path d="M3336 2043 c-37 -4 -38 -5 -32 -35 3 -17 6 -41 6 -54 0 -26 18 -30
79 -18 33 7 37 20 25 83 -4 20 -12 30 -23 29 -9 -1 -33 -3 -55 -5z"/>
<path d="M3327 1678 c-17 -440 -170 -792 -471 -1093 -248 -247 -468 -364 -848
-449 -31 -7 -34 -20 -18 -77 l10 -36 48 8 c246 46 516 167 722 323 93 70 275
258 341 351 120 170 205 343 259 528 43 148 60 262 67 440 l6 157 -55 0 -55 0
-6 -152z"/>
</g>
</svg>
