<?xml version="1.0" standalone="no"?>
<!DOCTYPE svg PUBLIC "-//W3C//DTD SVG 20010904//EN"
 "http://www.w3.org/TR/2001/REC-SVG-20010904/DTD/svg10.dtd">
<svg version="1.0" xmlns="http://www.w3.org/2000/svg"
 width="344.000000pt" height="344.000000pt" viewBox="0 0 344.000000 344.000000"
 preserveAspectRatio="xMidYMid meet">

<g transform="translate(0.000000,344.000000) scale(0.100000,-0.100000)"
fill="#000000" stroke="none">
<path d="M1679 3357 c-25 -19 -26 -23 -239 -578 -111 -288 -206 -528 -211
-534 -6 -6 -267 -23 -600 -41 -652 -35 -629 -31 -629 -99 0 -30 27 -54 465
-409 256 -207 465 -383 465 -390 0 -7 -68 -265 -150 -572 -84 -310 -148 -569
-145 -581 7 -31 33 -53 61 -53 16 0 210 119 517 317 271 174 499 317 507 317
8 0 237 -143 507 -317 308 -198 502 -317 517 -317 28 0 66 35 66 59 0 9 -67
268 -150 575 -82 307 -150 565 -150 571 0 7 204 178 453 380 269 218 457 377
463 393 14 31 1 77 -24 87 -20 8 -308 26 -812 50 -195 9 -363 20 -374 24 -13
5 -74 152 -227 550 -114 299 -216 552 -225 562 -19 21 -61 24 -85 6z"/>
</g>
</svg>
