<?xml version="1.0" standalone="no"?>
<!DOCTYPE svg PUBLIC "-//W3C//DTD SVG 20010904//EN"
 "http://www.w3.org/TR/2001/REC-SVG-20010904/DTD/svg10.dtd">
<svg version="1.0" xmlns="http://www.w3.org/2000/svg"
 width="344.000000pt" height="344.000000pt" viewBox="0 0 344.000000 344.000000"
 preserveAspectRatio="xMidYMid meet">

<g transform="translate(0.000000,344.000000) scale(0.100000,-0.100000)"
fill="#000000" stroke="none">
<path d="M1656 3285 c-22 -8 -51 -25 -65 -39 -14 -14 -118 -211 -231 -438
-138 -278 -213 -418 -230 -430 -19 -13 -140 -34 -474 -83 -294 -42 -462 -71
-485 -83 -19 -9 -48 -34 -65 -55 -40 -50 -48 -135 -18 -193 12 -23 150 -164
346 -354 197 -191 330 -326 336 -344 8 -23 -5 -118 -65 -465 -41 -240 -75
-455 -75 -479 0 -58 32 -116 82 -149 34 -23 53 -28 102 -28 60 0 67 3 466 214
302 160 414 214 440 214 26 1 133 -51 440 -214 399 -211 406 -214 466 -214 49
0 68 5 102 28 50 33 82 91 82 149 0 24 -34 239 -75 479 -60 349 -73 442 -65
465 6 18 142 156 340 348 361 350 367 358 358 456 -6 60 -45 115 -100 143 -24
12 -185 39 -485 82 -334 49 -454 70 -473 83 -17 12 -91 151 -230 431 -216 436
-231 459 -307 480 -49 14 -69 13 -117 -4z m114 -84 c32 -17 54 -57 245 -442
206 -417 211 -424 255 -451 41 -24 85 -33 475 -88 237 -34 447 -66 468 -71 45
-12 77 -56 77 -109 1 -33 -20 -55 -344 -375 -309 -305 -346 -345 -356 -384
-10 -39 -4 -90 64 -486 42 -243 76 -456 76 -473 0 -43 -44 -91 -91 -98 -33 -6
-77 15 -450 212 -395 208 -416 218 -469 218 -52 0 -77 -12 -469 -218 -373
-197 -417 -218 -450 -212 -47 7 -91 55 -91 98 0 17 34 230 76 473 68 396 74
447 64 486 -10 39 -47 79 -356 384 -316 312 -345 343 -344 373 0 40 23 88 50
102 11 6 223 40 472 76 411 59 457 68 498 92 44 27 49 34 255 451 191 385 213
425 245 442 19 11 42 19 50 19 8 0 31 -8 50 -19z"/>
<path d="M330 1995 c-19 -22 -4 -48 64 -114 65 -62 83 -70 104 -49 24 24 12
54 -51 116 -63 63 -94 75 -117 47z"/>
<path d="M542 1798 c-29 -29 -10 -55 156 -221 93 -92 173 -167 178 -167 25 0
47 27 41 51 -7 29 -327 349 -348 349 -8 0 -20 -5 -27 -12z"/>
</g>
</svg>
